<svg xmlns="http://www.w3.org/2000/svg" xmlns:xlink="http://www.w3.org/1999/xlink" width="500" zoomAndPan="magnify" viewBox="0 0 375 374.999991" height="500" preserveAspectRatio="xMidYMid meet" version="1.0"><defs><g/></defs><rect x="-37.5" width="450" fill="#ffffff" y="-37.499999" height="449.999989" fill-opacity="1"/><rect x="-37.5" width="450" fill="#fbfaf9" y="-37.499999" height="449.999989" fill-opacity="1"/><g fill="#c15b75" fill-opacity="1"><g transform="translate(124.750994, 279.701466)"><g><path d="M 59.015625 10.921875 C 47.742188 10.921875 37.554688 8.625 28.453125 4.03125 C 19.359375 -0.5625 12.164062 -7.40625 6.875 -16.5 C 1.59375 -25.601562 -1.046875 -36.828125 -1.046875 -50.171875 C -1.046875 -60.398438 0.335938 -68.976562 3.109375 -75.90625 C 5.890625 -82.84375 9.445312 -88.429688 13.78125 -92.671875 C 18.113281 -96.921875 22.660156 -99.953125 27.421875 -101.765625 C 32.191406 -103.585938 36.484375 -104.5 40.296875 -104.5 C 43.585938 -104.5 46.1875 -103.894531 48.09375 -102.6875 C 50 -101.476562 50.953125 -99.921875 50.953125 -98.015625 C 50.953125 -96.109375 50.210938 -94.457031 48.734375 -93.0625 C 47.265625 -91.675781 45.75 -89.898438 44.1875 -87.734375 C 42.632812 -85.566406 41.859375 -82.054688 41.859375 -77.203125 C 41.859375 -70.273438 43.765625 -64.726562 47.578125 -60.5625 C 51.390625 -56.40625 56.675781 -54.328125 63.4375 -54.328125 C 69.675781 -54.328125 74.785156 -56.320312 78.765625 -60.3125 C 82.753906 -64.300781 84.75 -69.5 84.75 -75.90625 C 84.75 -80.9375 83.40625 -85.960938 80.71875 -90.984375 C 78.03125 -96.015625 74.992188 -101.34375 71.609375 -106.96875 C 68.234375 -112.601562 65.203125 -118.671875 62.515625 -125.171875 C 59.835938 -131.671875 58.5 -138.820312 58.5 -146.625 C 58.5 -154.59375 60.273438 -162.128906 63.828125 -169.234375 C 67.378906 -176.335938 72.878906 -182.144531 80.328125 -186.65625 C 87.785156 -191.164062 97.234375 -193.421875 108.671875 -193.421875 C 118.890625 -193.421875 127.078125 -191.644531 133.234375 -188.09375 C 139.390625 -184.539062 143.851562 -179.945312 146.625 -174.3125 C 149.394531 -168.675781 150.78125 -162.738281 150.78125 -156.5 C 150.78125 -148.695312 148.695312 -141.414062 144.53125 -134.65625 C 140.375 -127.90625 134.742188 -122.707031 127.640625 -119.0625 C 126.597656 -117.675781 124.953125 -117.414062 122.703125 -118.28125 C 120.453125 -119.144531 118.585938 -120.570312 117.109375 -122.5625 C 115.640625 -124.5625 115.507812 -126.34375 116.71875 -127.90625 C 117.9375 -129.46875 118.890625 -131.585938 119.578125 -134.265625 C 120.273438 -136.953125 120.40625 -139.722656 119.96875 -142.578125 C 119.539062 -145.441406 118.414062 -147.828125 116.59375 -149.734375 C 114.769531 -151.648438 112.039062 -152.609375 108.40625 -152.609375 C 104.070312 -152.609375 100.300781 -151.21875 97.09375 -148.4375 C 93.882812 -145.664062 92.28125 -140.988281 92.28125 -134.40625 C 92.113281 -128.6875 93.628906 -122.878906 96.828125 -116.984375 C 100.035156 -111.085938 103.804688 -104.976562 108.140625 -98.65625 C 112.472656 -92.332031 116.285156 -85.617188 119.578125 -78.515625 C 122.878906 -71.410156 124.53125 -63.785156 124.53125 -55.640625 C 124.53125 -42.804688 121.710938 -31.363281 116.078125 -21.3125 C 110.441406 -11.257812 102.726562 -3.375 92.9375 2.34375 C 83.144531 8.0625 71.835938 10.921875 59.015625 10.921875 Z M 59.015625 10.921875 "/></g></g></g><g fill="#e19fae" fill-opacity="1"><g transform="translate(115.559631, 270.5101)"><g><path d="M 59.015625 10.921875 C 47.742188 10.921875 37.554688 8.625 28.453125 4.03125 C 19.359375 -0.5625 12.164062 -7.40625 6.875 -16.5 C 1.59375 -25.601562 -1.046875 -36.828125 -1.046875 -50.171875 C -1.046875 -60.398438 0.335938 -68.976562 3.109375 -75.90625 C 5.890625 -82.84375 9.445312 -88.429688 13.78125 -92.671875 C 18.113281 -96.921875 22.660156 -99.953125 27.421875 -101.765625 C 32.191406 -103.585938 36.484375 -104.5 40.296875 -104.5 C 43.585938 -104.5 46.1875 -103.894531 48.09375 -102.6875 C 50 -101.476562 50.953125 -99.921875 50.953125 -98.015625 C 50.953125 -96.109375 50.210938 -94.457031 48.734375 -93.0625 C 47.265625 -91.675781 45.75 -89.898438 44.1875 -87.734375 C 42.632812 -85.566406 41.859375 -82.054688 41.859375 -77.203125 C 41.859375 -70.273438 43.765625 -64.726562 47.578125 -60.5625 C 51.390625 -56.40625 56.675781 -54.328125 63.4375 -54.328125 C 69.675781 -54.328125 74.785156 -56.320312 78.765625 -60.3125 C 82.753906 -64.300781 84.75 -69.5 84.75 -75.90625 C 84.75 -80.9375 83.40625 -85.960938 80.71875 -90.984375 C 78.03125 -96.015625 74.992188 -101.34375 71.609375 -106.96875 C 68.234375 -112.601562 65.203125 -118.671875 62.515625 -125.171875 C 59.835938 -131.671875 58.5 -138.820312 58.5 -146.625 C 58.5 -154.59375 60.273438 -162.128906 63.828125 -169.234375 C 67.378906 -176.335938 72.878906 -182.144531 80.328125 -186.65625 C 87.785156 -191.164062 97.234375 -193.421875 108.671875 -193.421875 C 118.890625 -193.421875 127.078125 -191.644531 133.234375 -188.09375 C 139.390625 -184.539062 143.851562 -179.945312 146.625 -174.3125 C 149.394531 -168.675781 150.78125 -162.738281 150.78125 -156.5 C 150.78125 -148.695312 148.695312 -141.414062 144.53125 -134.65625 C 140.375 -127.90625 134.742188 -122.707031 127.640625 -119.0625 C 126.597656 -117.675781 124.953125 -117.414062 122.703125 -118.28125 C 120.453125 -119.144531 118.585938 -120.570312 117.109375 -122.5625 C 115.640625 -124.5625 115.507812 -126.34375 116.71875 -127.90625 C 117.9375 -129.46875 118.890625 -131.585938 119.578125 -134.265625 C 120.273438 -136.953125 120.40625 -139.722656 119.96875 -142.578125 C 119.539062 -145.441406 118.414062 -147.828125 116.59375 -149.734375 C 114.769531 -151.648438 112.039062 -152.609375 108.40625 -152.609375 C 104.070312 -152.609375 100.300781 -151.21875 97.09375 -148.4375 C 93.882812 -145.664062 92.28125 -140.988281 92.28125 -134.40625 C 92.113281 -128.6875 93.628906 -122.878906 96.828125 -116.984375 C 100.035156 -111.085938 103.804688 -104.976562 108.140625 -98.65625 C 112.472656 -92.332031 116.285156 -85.617188 119.578125 -78.515625 C 122.878906 -71.410156 124.53125 -63.785156 124.53125 -55.640625 C 124.53125 -42.804688 121.710938 -31.363281 116.078125 -21.3125 C 110.441406 -11.257812 102.726562 -3.375 92.9375 2.34375 C 83.144531 8.0625 71.835938 10.921875 59.015625 10.921875 Z M 59.015625 10.921875 "/></g></g></g></svg>