<svg width="48" height="48" viewBox="0 0 48 48" fill="none" xmlns="http://www.w3.org/2000/svg">
<path fill-rule="evenodd" clip-rule="evenodd" d="M6.5455 8.33333C5.35049 8.33333 4.36369 9.31328 4.36369 10.5V36.5C4.36369 37.6867 5.35049 38.6667 6.5455 38.6667H41.4543C42.6493 38.6667 43.6361 37.6867 43.6361 36.5V10.5C43.6361 9.31328 42.6493 8.33333 41.4543 8.33333H6.5455ZM9.15527e-05 10.5C9.15527e-05 6.92005 2.94054 4 6.5455 4H41.4543C45.0593 4 47.9997 6.92005 47.9997 10.5V36.5C47.9997 40.08 45.0593 43 41.4543 43H6.5455C2.94054 43 9.15527e-05 40.08 9.15527e-05 36.5V10.5Z" fill="#C15B75"/>
<path fill-rule="evenodd" clip-rule="evenodd" d="M0.394587 9.25749C1.0856 8.27718 2.44601 8.03877 3.43317 8.72499L24 23.0219L44.5668 8.72499C45.554 8.03877 46.9144 8.27718 47.6054 9.25749C48.2964 10.2378 48.0563 11.5888 47.0692 12.275L25.2512 27.4417C24.4999 27.9639 23.5001 27.9639 22.7488 27.4417L0.930808 12.275C-0.0563468 11.5888 -0.296421 10.2378 0.394587 9.25749Z" fill="#C15B75"/>
</svg>
