<svg width="500" height="500" viewBox="0 0 500 500" fill="none" xmlns="http://www.w3.org/2000/svg">
<path d="M250.968 372C232.914 372 216.59 368.319 202.017 360.958C187.433 353.596 175.902 342.632 167.437 328.055C158.96 313.488 154.728 295.511 154.728 274.144C154.728 257.749 156.94 244.002 161.374 232.892C165.832 221.793 171.535 212.849 178.485 206.049C185.423 199.259 192.721 194.411 200.355 191.505C207.99 188.576 214.861 187.106 220.969 187.106C226.234 187.106 230.399 188.082 233.453 190.024C236.507 191.976 238.034 194.468 238.034 197.52C238.034 200.572 236.844 203.209 234.486 205.42C232.117 207.642 229.681 210.481 227.166 213.949C224.674 217.428 223.439 223.05 223.439 230.827C223.439 241.937 226.492 250.825 232.6 257.49C238.73 264.134 247.207 267.456 258.019 267.456C268.011 267.456 276.207 264.269 282.584 257.894C288.983 251.52 292.194 243.194 292.194 232.892C292.194 224.846 290.039 216.799 285.727 208.742C281.416 200.696 276.543 192.167 271.132 183.156C265.743 174.122 260.893 164.415 256.581 154.023C252.27 143.609 250.115 132.152 250.115 119.639C250.115 106.891 252.955 94.8383 258.647 83.4592C264.328 72.0576 273.153 62.7546 285.099 55.5388C297.044 48.3343 312.179 44.7208 330.502 44.7208C346.905 44.7208 360.029 47.5712 369.887 53.2495C379.733 58.9391 386.874 66.3007 391.308 75.3345C395.766 84.3457 398 93.8508 398 103.838C398 116.317 394.654 127.977 387.985 138.806C381.339 149.647 372.323 157.973 360.95 163.809C359.266 166.031 356.616 166.446 353.001 165.066C349.408 163.663 346.422 161.374 344.064 158.198C341.695 155 341.482 152.138 343.435 149.624C345.378 147.144 346.905 143.744 348.016 139.435C349.116 135.125 349.33 130.681 348.645 126.103C347.949 121.524 346.141 117.709 343.211 114.656C340.303 111.604 335.936 110.078 330.097 110.078C323.148 110.078 317.096 112.311 311.954 116.766C306.835 121.199 304.275 128.684 304.275 139.21C304.005 148.367 306.43 157.682 311.55 167.131C316.692 176.557 322.744 186.343 329.693 196.487C336.632 206.61 342.739 217.36 348.016 228.762C353.282 240.141 355.92 252.351 355.92 265.391C355.92 285.927 351.396 304.241 342.358 320.334C333.342 336.437 320.992 349.062 305.308 358.219C289.612 367.399 271.502 372 250.968 372Z" fill="#C15B75"/>
<path d="M236.24 357.279C218.187 357.279 201.862 353.598 187.289 346.237C172.705 338.875 161.175 327.911 152.709 313.334C144.233 298.768 140 280.79 140 259.423C140 243.028 142.212 229.281 146.647 218.171C151.104 207.072 156.807 198.128 163.757 191.328C170.695 184.539 177.993 179.691 185.628 176.784C193.262 173.855 200.133 172.385 206.241 172.385C211.506 172.385 215.672 173.361 218.725 175.303C221.779 177.255 223.306 179.747 223.306 182.799C223.306 185.852 222.116 188.489 219.758 190.699C217.389 192.921 214.953 195.761 212.438 199.228C209.946 202.707 208.711 208.329 208.711 216.106C208.711 227.216 211.765 236.104 217.872 242.77C224.002 249.413 232.479 252.735 243.291 252.735C253.283 252.735 261.479 249.548 267.856 243.174C274.255 236.8 277.466 228.473 277.466 218.171C277.466 210.125 275.311 202.079 271 194.021C266.688 185.975 261.816 177.446 256.404 168.435C251.015 159.401 246.165 149.694 241.854 139.303C237.542 128.889 235.387 117.431 235.387 104.918C235.387 92.17 238.227 80.1176 243.919 68.7384C249.6 57.3369 258.425 48.0338 270.371 40.818C282.317 33.6135 297.451 30 315.774 30C332.177 30 345.302 32.8504 355.159 38.5287C365.005 44.2183 372.146 51.58 376.581 60.6137C381.038 69.625 383.272 79.13 383.272 89.1176C383.272 101.597 379.926 113.256 373.257 124.085C366.611 134.926 357.595 143.253 346.222 149.088C344.538 151.31 341.888 151.725 338.273 150.345C334.681 148.942 331.694 146.653 329.336 143.477C326.967 140.279 326.754 137.417 328.708 134.904C330.65 132.423 332.177 129.023 333.288 124.714C334.389 120.405 334.602 115.961 333.917 111.382C333.221 106.804 331.413 102.988 328.483 99.9357C325.575 96.8833 321.208 95.3571 315.37 95.3571C308.42 95.3571 302.369 97.5903 297.226 102.045C292.107 106.478 289.547 113.963 289.547 124.489C289.278 133.647 291.703 142.961 296.822 152.41C301.964 161.836 308.016 171.622 314.966 181.767C321.904 191.889 328.012 202.64 333.288 214.041C338.554 225.42 341.192 237.63 341.192 250.67C341.192 271.206 336.668 289.521 327.63 305.613C318.614 321.717 306.264 334.341 290.58 343.499C274.884 352.678 256.775 357.279 236.24 357.279Z" fill="#E19FAE"/>
<path d="M86.6955 470C84.7238 470 82.9986 469.75 81.5423 469.274C80.1084 468.797 78.8985 468.23 77.9127 467.594C76.7476 466.902 75.773 466.096 75 465.189L79.3466 460.831C79.8507 461.444 80.4669 461.989 81.1838 462.465C81.8112 462.896 82.5505 463.271 83.4243 463.6C84.3205 463.94 85.3288 464.099 86.4714 464.099C88.1966 464.099 89.4513 463.77 90.2355 463.101C91.0421 462.443 91.4454 461.603 91.4454 460.604C91.4454 459.73 91.0645 459.038 90.3251 458.516C89.5745 458.006 88.6335 457.552 87.5021 457.155C86.393 456.735 85.1831 456.315 83.8724 455.884C82.5841 455.43 81.3743 454.862 80.2428 454.159C79.1337 453.433 78.1927 452.513 77.4198 451.39C76.6692 450.244 76.2995 448.78 76.2995 446.987C76.2995 445.807 76.546 444.672 77.0613 443.583C77.5654 442.471 78.2824 441.495 79.2122 440.678C80.1644 439.861 81.3295 439.214 82.7074 438.726C84.0741 438.25 85.6312 438 87.3676 438C89.0368 438 90.5156 438.227 91.8039 438.681C93.081 439.112 94.1452 439.589 94.9854 440.133C95.9376 440.746 96.789 441.427 97.5396 442.176L93.193 446.579C92.7449 446.068 92.2296 445.626 91.6694 445.262C91.1877 444.933 90.594 444.627 89.877 444.355C89.1825 444.082 88.4095 443.946 87.5469 443.946C85.9001 443.946 84.735 444.241 84.0517 444.809C83.3571 445.387 83.021 446.113 83.021 446.987C83.021 447.872 83.3907 448.565 84.1413 449.075C84.8807 449.597 85.8217 450.062 86.9643 450.482C88.0958 450.879 89.3057 451.299 90.594 451.753C91.9047 452.184 93.1146 452.752 94.2236 453.478C95.3551 454.182 96.2961 455.101 97.0467 456.247C97.786 457.37 98.1669 458.823 98.1669 460.604C98.1669 461.852 97.8981 463.044 97.3603 464.19C96.845 465.348 96.1056 466.357 95.1198 467.231C94.134 468.082 92.9241 468.763 91.4902 469.274C90.0787 469.75 88.4879 470 86.6955 470Z" fill="#C15B75"/>
<path d="M113.306 458.38L101.835 438.681H109.408L116.488 451.844H116.667L123.702 438.681H131.275L119.804 458.38V469.365H113.306V458.38Z" fill="#C15B75"/>
<path d="M137.545 438.681H148.568C150.921 438.681 153.072 439.089 155.021 439.906C156.959 440.701 158.651 441.79 160.084 443.174C161.518 444.536 162.616 446.159 163.4 448.031C164.207 449.881 164.61 451.878 164.61 454.023C164.61 456.145 164.207 458.142 163.4 460.014C162.616 461.898 161.518 463.532 160.084 464.916C158.651 466.278 156.959 467.367 155.021 468.184C153.072 468.979 150.921 469.365 148.568 469.365H137.545V438.681ZM148.568 463.237C149.935 463.237 151.19 463.01 152.332 462.556C153.464 462.079 154.438 461.421 155.245 460.604C156.074 459.787 156.724 458.823 157.172 457.699C157.642 456.553 157.889 455.328 157.889 454.023C157.889 452.695 157.642 451.47 157.172 450.346C156.724 449.234 156.074 448.258 155.245 447.441C154.438 446.624 153.464 445.989 152.332 445.535C151.19 445.058 149.935 444.809 148.568 444.809H144.042V463.237H148.568Z" fill="#C15B75"/>
<path d="M173.027 438.681H178.853L193.595 457.745V438.681H200.093V469.365H194.223L179.525 450.301V469.365H173.027V438.681Z" fill="#C15B75"/>
<path d="M210.457 438.681H232.951V444.809H216.954V450.709H229.501V456.655H216.954V463.237H233.399V469.365H210.457V438.681Z" fill="#C15B75"/>
<path d="M249.177 458.38L237.706 438.681H245.279L252.359 451.844H252.538L259.573 438.681H267.146L255.675 458.38V469.365H249.177V458.38Z" fill="#C15B75"/>
<path d="M285.101 438.681H307.596V444.809H291.598V450.709H304.145V456.655H291.598V463.237H308.044V469.365H285.101V438.681Z" fill="#C15B75"/>
<path d="M325.121 470C323.149 470 321.424 469.75 319.968 469.274C318.534 468.797 317.324 468.23 316.338 467.594C315.173 466.902 314.198 466.096 313.425 465.189L317.772 460.831C318.276 461.444 318.892 461.989 319.609 462.465C320.236 462.896 320.976 463.271 321.85 463.6C322.746 463.94 323.754 464.099 324.897 464.099C326.622 464.099 327.877 463.77 328.661 463.101C329.467 462.443 329.871 461.603 329.871 460.604C329.871 459.73 329.49 459.038 328.75 458.516C328 458.006 327.059 457.552 325.927 457.155C324.818 456.735 323.608 456.315 322.298 455.884C321.009 455.43 319.8 454.862 318.668 454.159C317.559 453.433 316.618 452.513 315.845 451.39C315.094 450.244 314.725 448.78 314.725 446.987C314.725 445.807 314.971 444.672 315.487 443.583C315.991 442.471 316.708 441.495 317.637 440.678C318.59 439.861 319.755 439.214 321.133 438.726C322.499 438.25 324.057 438 325.793 438C327.462 438 328.941 438.227 330.229 438.681C331.506 439.112 332.57 439.589 333.411 440.133C334.363 440.746 335.214 441.427 335.965 442.176L331.618 446.579C331.17 446.068 330.655 445.626 330.095 445.262C329.613 444.933 329.019 444.627 328.302 444.355C327.608 444.082 326.835 443.946 325.972 443.946C324.325 443.946 323.16 444.241 322.477 444.809C321.782 445.387 321.446 446.113 321.446 446.987C321.446 447.872 321.816 448.565 322.567 449.075C323.306 449.597 324.247 450.062 325.39 450.482C326.521 450.879 327.731 451.299 329.019 451.753C330.33 452.184 331.54 452.752 332.649 453.478C333.78 454.182 334.721 455.101 335.472 456.247C336.211 457.37 336.592 458.823 336.592 460.604C336.592 461.852 336.323 463.044 335.786 464.19C335.27 465.348 334.531 466.357 333.545 467.231C332.559 468.082 331.349 468.763 329.915 469.274C328.504 469.75 326.913 470 325.121 470Z" fill="#C15B75"/>
<path d="M350.029 444.809H341.335V438.681H365.175V444.809H356.481V469.365H350.029V444.809Z" fill="#C15B75"/>
<path d="M372.509 438.681H395.003V444.809H379.006V450.709H391.553V456.655H379.006V463.237H395.451V469.365H372.509V438.681Z" fill="#C15B75"/>
<path d="M412.528 470C410.557 470 408.832 469.75 407.375 469.274C405.941 468.797 404.732 468.23 403.746 467.594C402.581 466.902 401.606 466.096 400.833 465.189L405.18 460.831C405.684 461.444 406.3 461.989 407.017 462.465C407.644 462.896 408.384 463.271 409.257 463.6C410.154 463.94 411.162 464.099 412.304 464.099C414.03 464.099 415.284 463.77 416.069 463.101C416.875 462.443 417.278 461.603 417.278 460.604C417.278 459.73 416.897 459.038 416.158 458.516C415.408 458.006 414.467 457.552 413.335 457.155C412.226 456.735 411.016 456.315 409.705 455.884C408.417 455.43 407.207 454.862 406.076 454.159C404.967 453.433 404.026 452.513 403.253 451.39C402.502 450.244 402.133 448.78 402.133 446.987C402.133 445.807 402.379 444.672 402.894 443.583C403.398 442.471 404.115 441.495 405.045 440.678C405.997 439.861 407.162 439.214 408.54 438.726C409.907 438.25 411.464 438 413.201 438C414.87 438 416.349 438.227 417.637 438.681C418.914 439.112 419.978 439.589 420.818 440.133C421.771 440.746 422.622 441.427 423.373 442.176L419.026 446.579C418.578 446.068 418.063 445.626 417.502 445.262C417.021 444.933 416.427 444.627 415.71 444.355C415.015 444.082 414.242 443.946 413.38 443.946C411.733 443.946 410.568 444.241 409.885 444.809C409.19 445.387 408.854 446.113 408.854 446.987C408.854 447.872 409.224 448.565 409.974 449.075C410.714 449.597 411.655 450.062 412.797 450.482C413.929 450.879 415.139 451.299 416.427 451.753C417.738 452.184 418.948 452.752 420.057 453.478C421.188 454.182 422.129 455.101 422.88 456.247C423.619 457.37 424 458.823 424 460.604C424 461.852 423.731 463.044 423.193 464.19C422.678 465.348 421.939 466.357 420.953 467.231C419.967 468.082 418.757 468.763 417.323 469.274C415.912 469.75 414.321 470 412.528 470Z" fill="#C15B75"/>
</svg>
