<svg width="500" height="500" viewBox="0 0 500 500" fill="none" xmlns="http://www.w3.org/2000/svg">
<path d="M226.243 480C201.949 480 179.995 475.052 160.381 465.156C140.783 455.26 125.277 440.517 113.879 420.927C102.498 401.321 96.8075 377.136 96.8075 348.391C96.8075 326.361 99.7875 307.882 105.764 292.954C111.758 278.009 119.418 265.976 128.762 256.837C138.098 247.682 147.897 241.152 158.158 237.247C168.437 233.326 177.688 231.357 185.904 231.357C192.992 231.357 198.598 232.661 202.706 235.261C206.814 237.87 208.868 241.219 208.868 245.325C208.868 249.432 207.269 252.991 204.087 255.996C200.922 258.983 197.656 262.812 194.288 267.473C190.938 272.144 189.271 279.709 189.271 290.16C189.271 305.088 193.379 317.037 201.595 326.007C209.811 334.961 221.201 339.438 235.773 339.438C249.216 339.438 260.227 335.146 268.805 326.546C277.4 317.954 281.701 306.754 281.701 292.954C281.701 282.115 278.806 271.294 273.014 260.472C267.222 249.634 260.673 238.156 253.383 226.039C246.11 213.904 239.577 200.828 233.786 186.825C228.011 172.823 225.132 157.424 225.132 140.611C225.132 123.444 228.954 107.212 236.614 91.9052C244.266 76.6069 256.119 64.094 272.172 54.3748C288.242 44.664 308.605 39.8002 333.253 39.8002C355.275 39.8002 372.919 43.6289 386.186 51.2781C399.453 58.9356 409.066 68.8315 415.043 80.9658C421.012 93.1085 424 105.899 424 119.338C424 136.151 419.505 151.836 410.531 166.394C401.574 180.935 389.435 192.135 374.131 199.986C371.884 202.973 368.34 203.537 363.491 201.669C358.642 199.809 354.618 196.738 351.436 192.446C348.271 188.138 347.985 184.301 350.595 180.935C353.221 177.569 355.275 173.008 356.757 167.235C358.255 161.446 358.541 155.48 357.598 149.328C356.672 143.16 354.248 138.019 350.325 133.912C346.394 129.789 340.51 127.719 332.681 127.719C323.337 127.719 315.214 130.715 308.302 136.706C301.383 142.681 297.931 152.753 297.931 166.932C297.569 179.252 300.836 191.765 307.73 204.463C314.641 217.169 322.765 230.33 332.109 243.945C341.444 257.569 349.66 272.034 356.757 287.333C363.87 302.639 367.431 319.065 367.431 336.61C367.431 364.262 361.353 388.909 349.214 410.56C337.067 432.22 320.441 449.201 299.346 461.521C278.242 473.84 253.871 480 226.243 480Z" fill="#C15B75"/>
<path d="M206.436 460.2C182.141 460.2 160.187 455.252 140.573 445.356C120.976 435.46 105.47 420.717 94.0718 401.127C82.6906 381.521 77 357.336 77 328.591C77 306.561 79.98 288.082 85.9568 273.154C91.9504 258.209 99.6109 246.175 108.955 237.037C118.29 227.881 128.089 221.352 138.351 217.447C148.629 213.526 157.881 211.557 166.097 211.557C173.185 211.557 178.791 212.861 182.899 215.461C187.007 218.07 189.061 221.419 189.061 225.525C189.061 229.632 187.462 233.191 184.28 236.195C181.114 239.183 177.848 243.011 174.481 247.673C171.131 252.344 169.464 259.909 169.464 270.36C169.464 285.288 173.572 297.237 181.788 306.207C190.004 315.161 201.393 319.637 215.965 319.637C229.409 319.637 240.419 315.346 248.997 306.746C257.592 298.154 261.894 286.954 261.894 273.154C261.894 262.315 258.998 251.494 253.206 240.672C247.415 229.834 240.866 218.356 233.576 206.238C226.302 194.104 219.77 181.027 213.978 167.025C208.204 153.023 205.325 137.623 205.325 120.81C205.325 103.644 209.146 87.4117 216.807 72.105C224.459 56.8067 236.311 44.2938 252.365 34.5746C268.435 24.8638 288.798 20 313.446 20C335.468 20 353.112 23.8288 366.379 31.4779C379.645 39.1355 389.259 49.0314 395.236 61.1656C401.204 73.3083 404.192 86.099 404.192 99.5376C404.192 116.351 399.697 132.036 390.724 146.594C381.767 161.135 369.628 172.335 354.324 180.186C352.076 183.173 348.532 183.737 343.684 181.869C338.835 180.009 334.811 176.938 331.629 172.646C328.464 168.338 328.178 164.501 330.787 161.135C333.414 157.769 335.468 153.208 336.949 147.435C338.448 141.646 338.734 135.68 337.791 129.528C336.865 123.36 334.441 118.219 330.518 114.112C326.587 109.989 320.702 107.919 312.874 107.919C303.53 107.919 295.406 110.914 288.495 116.906C281.575 122.88 278.124 132.953 278.124 147.132C277.762 159.452 281.028 171.965 287.922 184.663C294.834 197.369 302.957 210.53 312.301 224.145C321.637 237.769 329.853 252.234 336.949 267.532C344.062 282.839 347.623 299.265 347.623 316.81C347.623 344.461 341.545 369.109 329.407 390.76C317.259 412.42 300.634 429.401 279.538 441.721C258.434 454.04 234.064 460.2 206.436 460.2Z" fill="#E19FAE"/>
</svg>
